<?xml version="1.0" encoding="UTF-8"?>
<svg width="800" height="800" viewBox="0 0 800 800" version="1.1" xmlns="http://www.w3.org/2000/svg">
  <g transform="translate(100, 100) scale(0.75)">
    <path fill="#0052CC" d="M100,200 
      L200,200 
      C250,200 300,150 300,100 
      L300,50 
      M100,300 
      L200,300 
      C250,300 300,350 300,400 
      L300,450 
      M100,400 
      L200,400 
      C250,400 300,450 300,500 
      L300,550 
      M100,500 
      L200,500 
      C250,500 300,550 300,600 
      L300,650
      M300,50 
      C300,25 325,0 350,0 
      L450,0 
      C500,0 550,50 550,100
      L550,200
      C550,300 650,400 750,400
      C650,400 550,500 550,600
      L550,700
      C550,750 500,800 450,800
      L350,800
      C325,800 300,775 300,750
      L300,650" />
    <path fill="#FF9966" d="M400,250
      C450,250 475,275 475,300
      C475,350 425,400 375,400
      C425,400 475,450 475,500
      C475,525 450,550 400,550
      C375,550 350,525 350,500
      C350,450 400,400 450,400
      C400,400 350,350 350,300
      C350,275 375,250 400,250Z" />
  </g>
</svg>