<?xml version="1.0" standalone="no"?>
<!DOCTYPE svg PUBLIC "-//W3C//DTD SVG 20010904//EN" "http://www.w3.org/TR/2001/REC-SVG-20010904/DTD/svg10.dtd">
<svg version="1.0" xmlns="http://www.w3.org/2000/svg" width="700pt" height="700pt" viewBox="0 0 700 700" preserveAspectRatio="xMidYMid meet">
  <g transform="translate(0.000000,700.000000) scale(0.100000,-0.100000)" fill="#0052CC" stroke="none">
    <path d="M3280 6989 c-386 -40 -789 -159 -1140 -339 -524 -269 -947 -692 -1216
    -1216 -180 -351 -299 -754 -339 -1140 -24 -231 -15 -597 20 -824 134 -870 590
    -1617 1305 -2132 377 -272 826 -460 1290 -540 231 -40 597 -49 824 -20 870 134
    1617 590 2132 1305 272 377 460 826 540 1290 40 231 49 597 20 824 -134 870
    -590 1617 -1305 2132 -377 272 -826 460 -1290 540 -183 32 -561 41 -741 20z"/>
  </g>
</svg>